# Blender v2.77 (sub 0) OBJ File: ''
# www.blender.org
mtllib wedge_corner.mtl
o Cube
v 1.000000 0.000000 -1.000000
v 1.000000 0.000000 1.000000
v -1.000000 0.000000 1.000000
v -1.000000 0.000000 -1.000000
v 1.000000 2.000000 -0.999999
v 0.999999 1.000000 0.000001
v -0.000000 1.000000 -0.000000
v 1.000000 2.000000 -1.000000
vt 0.0000 0.0000
vt 1.0000 0.0000
vt 1.0000 1.0000
vt 0.0000 1.0000
vt 0.0000 0.0000
vt 1.0000 0.0000
vt 1.0000 1.0000
vt 0.0000 1.0000
vt 1.0000 0.0000
vt 1.0000 1.0000
vt 0.0000 1.0000
vt 0.0000 0.0000
vt 1.0000 0.0000
vt 0.0000 1.0000
vt 0.0000 0.0000
vt 1.0000 0.0000
vt 1.0000 1.0000
vt 1.0000 0.0000
vt 1.0000 1.0000
vt 0.0000 1.0000
vn 0.0000 -1.0000 0.0000
vn -0.0000 0.7071 0.7071
vn 1.0000 0.0000 0.0000
vn -0.7071 0.7071 -0.0000
vn 0.0000 -0.0000 -1.0000
usemtl Material
s off
f 1/1/1 2/2/1 3/3/1 4/4/1
f 5/5/2 8/6/2 7/7/2 6/8/2
f 1/1/3 5/9/3 6/10/3 2/11/3
f 2/12/2 6/13/2 7/7/2 3/14/2
f 3/15/4 7/16/4 8/17/4 4/4/4
f 5/5/5 1/18/5 4/19/5 8/20/5
